<svg width="20" height="23" viewBox="0 0 20 23" fill="none" xmlns="http://www.w3.org/2000/svg">
<path d="M7.85779 21.0614L1.7464 14.1166C1.28611 13.5936 1.28611 12.7456 1.7464 12.2226L10.396 2.39342C10.704 2.04342 11.1258 1.85389 11.5611 1.86983L16.9372 2.06686C17.7677 2.09733 18.4347 2.8553 18.4615 3.79905L18.6349 9.90819C18.6489 10.403 18.4821 10.8822 18.1741 11.2322L9.52449 21.0614C9.06428 21.5844 8.318 21.5844 7.85779 21.0614Z" stroke="#ADADAD" stroke-width="2" stroke-miterlimit="10" stroke-linecap="round" stroke-linejoin="round"/>
<path d="M3.15289 10.6243L10.9306 19.4633" stroke="#ADADAD" stroke-width="2" stroke-miterlimit="10" stroke-linecap="round" stroke-linejoin="round"/>
<path d="M15.7727 6.24224C16.3168 6.24224 16.7579 5.741 16.7579 5.1227C16.7579 4.5044 16.3168 4.00317 15.7727 4.00317C15.2286 4.00317 14.7875 4.5044 14.7875 5.1227C14.7875 5.741 15.2286 6.24224 15.7727 6.24224Z" fill="#ADADAD"/>
</svg>
