<svg width="20" height="26" viewBox="0 0 20 26" fill="none" xmlns="http://www.w3.org/2000/svg">
<path d="M10 0.5C7.34875 0.502978 4.80694 1.5575 2.93222 3.43222C1.0575 5.30694 0.00297764 7.84875 0 10.5C0 14.5688 2.95375 17.9475 6.0825 21.5238C7.0725 22.6562 8.0975 23.8275 9.01 25.0125C9.12677 25.164 9.27675 25.2866 9.44838 25.3711C9.62002 25.4555 9.80873 25.4993 10 25.4993C10.1913 25.4993 10.38 25.4555 10.5516 25.3711C10.7233 25.2866 10.8732 25.164 10.99 25.0125C11.9025 23.8275 12.9275 22.6562 13.9175 21.5238C17.0462 17.9475 20 14.5688 20 10.5C19.997 7.84875 18.9425 5.30694 17.0678 3.43222C15.1931 1.5575 12.6513 0.502978 10 0.5ZM10 14.25C9.25832 14.25 8.5333 14.0301 7.91661 13.618C7.29993 13.206 6.81928 12.6203 6.53545 11.9351C6.25162 11.2498 6.17736 10.4958 6.32205 9.76841C6.46675 9.04098 6.8239 8.3728 7.34835 7.84835C7.8728 7.3239 8.54098 6.96675 9.26841 6.82206C9.99584 6.67736 10.7498 6.75162 11.4351 7.03545C12.1203 7.31928 12.706 7.79993 13.118 8.41661C13.5301 9.0333 13.75 9.75832 13.75 10.5C13.75 11.4946 13.3549 12.4484 12.6517 13.1517C11.9484 13.8549 10.9946 14.25 10 14.25Z" fill="#ADADAD"/>
</svg>
