<svg width="19" height="19" viewBox="0 0 19 19" fill="none" xmlns="http://www.w3.org/2000/svg">
<path d="M17.3961 3.47887H1.6039C0.715584 3.47887 0 2.70282 0 1.73944C0 0.776056 0.715584 0 1.6039 0H17.3961C18.2844 0 19 0.776056 19 1.73944C19 2.70282 18.2844 3.47887 17.3961 3.47887ZM19 9.5C19 8.53662 18.2844 7.76056 17.3961 7.76056H1.6039C0.715584 7.76056 0 8.53662 0 9.5C0 10.4634 0.715584 11.2394 1.6039 11.2394H17.3961C18.2844 11.2394 19 10.4634 19 9.5ZM19 17.2606C19 16.2972 18.2844 15.5211 17.3961 15.5211H1.6039C0.715584 15.5211 0 16.2972 0 17.2606C0 18.2239 0.715584 19 1.6039 19H17.3961C18.2844 19 19 18.2239 19 17.2606Z" fill="#ADADAD"/>
</svg>
